<svg width="63" height="94" viewBox="0 0 63 94" fill="none" xmlns="http://www.w3.org/2000/svg">
<path d="M9.56919 53.5018C9.2671 51.1125 11.1293 49 13.5376 49H51.0649C53.4368 49 55.2877 51.0523 55.0436 53.4116L51.3712 88.9116C51.1603 90.9505 49.4422 92.5 47.3924 92.5H18.0261C16.011 92.5 14.3105 91.001 14.0577 89.0018L9.56919 53.5018Z" fill="#DBB4A8"/>
<path d="M9.49936 26.5H53.6245C55.3874 26.5 56.7702 28.0127 56.6125 29.7684L51.1774 90.2684C51.0384 91.815 49.7422 93 48.1894 93H16.633C15.112 93 13.8317 91.8618 13.6536 90.3513L6.51999 29.8513C6.30967 28.0676 7.70326 26.5 9.49936 26.5Z" stroke="black" stroke-width="2"/>
<circle cx="22" cy="88" r="4" fill="black"/>
<circle cx="26" cy="69" r="4" fill="black"/>
<circle cx="18" cy="77" r="4" fill="black"/>
<circle cx="46" cy="84" r="4" fill="black"/>
<circle cx="30" cy="81" r="4" fill="black"/>
<line x1="51.7978" y1="0.453869" x2="35.4585" y2="88.9583" stroke="black" stroke-width="5"/>
<rect y="24" width="63" height="3" rx="1.5" fill="black"/>
</svg>
