<svg width="292" height="312" viewBox="0 0 292 312" fill="none" xmlns="http://www.w3.org/2000/svg">
<ellipse cx="146" cy="291" rx="146" ry="21" fill="#C4C4C4"/>
<path d="M269.409 72.8916L74.1262 85.4455C72.9407 85.5217 72.635 83.8355 73.7718 83.4906L109.29 72.7153C109.712 72.5874 110 72.1988 110 71.7584V13.7858C110 13.0043 110.858 12.5117 111.548 12.8783C117.875 16.2397 132.609 21.7683 152 22.5C172.652 23.2793 203.522 12.4177 217.43 6.46317C217.996 6.2208 218.637 6.53235 218.791 7.1287C222.875 22.991 230.5 53.3758 230.5 56.5C230.5 59.3212 253.818 66.495 269.617 70.8949C270.708 71.1987 270.539 72.8189 269.409 72.8916Z" fill="black" stroke="black" stroke-width="12"/>
<path d="M115.153 78.0119C110.526 82.2396 106.198 88.0768 100.129 107.575C94.0784 127.011 86.1425 160.557 74.5815 220.701C71.5308 234.941 67.3717 244.633 61.902 251.267C56.5165 257.799 49.6006 261.68 40.3458 263.814C37.4836 264.474 35.8525 266.858 35.6062 269.176C35.3534 271.555 36.5389 274.365 39.5118 275.424C51.4519 279.673 67.7561 283.711 83.8074 283.985C99.5191 284.253 115.696 280.914 126.976 269.782C129.474 272.755 133.186 275.865 137.007 278.332C140.882 280.832 145.47 283.063 149.481 283.475C154.149 283.955 159.886 284.149 166.029 282.325C171.953 280.566 178.001 277.008 183.792 270.516C185.839 273.459 188.761 276.476 192.06 278.845C195.589 281.379 200.008 283.496 204.59 283.496C210.339 283.496 220.254 283.222 228.942 274.716C237.49 266.345 244.099 250.753 245.668 222.217C248.827 164.79 249.582 130.748 248.594 109.568C247.606 88.3958 244.864 79.4845 240.564 72.7773C239.369 70.914 237.294 69.9544 235.232 70.0678L118.845 76.4676C117.51 76.541 116.195 77.0596 115.153 78.0119Z" fill="white" stroke="black" stroke-width="8"/>
<circle cx="158" cy="123" r="26" fill="white" stroke="black" stroke-width="8"/>
<circle cx="234" cy="123" r="26" fill="white" stroke="black" stroke-width="8"/>
<path d="M182.5 127C187.5 123.833 199.6 119.4 208 127" stroke="black" stroke-width="8"/>
</svg>
